# xmcd
#
# Track frame offsets: 
#        150
#        10858
#        25970
#        36143
#        56666
#        72139
#        82992
#        96320
#        108482
#        121330
#        133728
#        144724
#        157377
#        171174
#        183466
#        196813
#        206856
#        221713
#        236158
#
# Disc length: 3511 seconds
#
# Revision: 0
# Processed by: cddbd v1.4PL0 Copyright (c) Steve Scherf et al.
# Submitted via: ExactAudioCopy v0.90b4
#
DISCID=1f0db513
DTITLE=Paul Butterfield - The Original Lost Elektra Sessions
DYEAR=1900
DGENRE=
TTITLE0=Good Morning Little Schoolgirl
TTITLE1=Just to Be With You
TTITLE2=Help Me
TTITLE3=Hate to See You Go
TTITLE4=Poor Boy
TTITLE5=Nut Popper, No 1
TTITLE6=Everything's Gonna Be Alright
TTITLE7=Lovin' Cup
TTITLE8=Rock Me 
TTITLE9=It Hurts Me Too
TTITLE10=Our Love Is Drifting
TTITLE11=Take Me Back, Baby
TTITLE12=Mellow Down Easy
TTITLE13=Ain't No Need to Go No Further
TTITLE14=Love Her With a Feeling
TTITLE15=Piney Brown Blues
TTITLE16=Spoonful
TTITLE17=That's All Right
TTITLE18=Goin' Down Slow
EXTD=
EXTT0=
EXTT1=
EXTT2=
EXTT3=
EXTT4=
EXTT5=
EXTT6=
EXTT7=
EXTT8=
EXTT9=
EXTT10=
EXTT11=
EXTT12=
EXTT13=
EXTT14=
EXTT15=
EXTT16=
EXTT17=
EXTT18=
PLAYORDER=
